<svg xmlns="http://www.w3.org/2000/svg" width="80.128" height="80.128" viewBox="0 0 80.128 80.128">
  <path id="accessible001_-_E799" data-name="accessible001 - E799" d="M28.352-92.352a41.736,41.736,0,0,0-12.736-8.576A40.978,40.978,0,0,0,0-104.064a40.978,40.978,0,0,0-15.616,3.136,41.736,41.736,0,0,0-12.736,8.576,41.736,41.736,0,0,0-8.576,12.736A40.978,40.978,0,0,0-40.064-64a40.978,40.978,0,0,0,3.136,15.616,41.736,41.736,0,0,0,8.576,12.736,41.736,41.736,0,0,0,12.736,8.576A40.978,40.978,0,0,0,0-23.936a40.978,40.978,0,0,0,15.616-3.136,41.736,41.736,0,0,0,12.736-8.576,41.735,41.735,0,0,0,8.576-12.736A40.978,40.978,0,0,0,40.064-64a40.978,40.978,0,0,0-3.136-15.616A41.735,41.735,0,0,0,28.352-92.352Zm5.5,42.624a36.3,36.3,0,0,1-7.872,11.712,36.3,36.3,0,0,1-11.712,7.872A36,36,0,0,1,0-27.264a36,36,0,0,1-14.272-2.88,36.3,36.3,0,0,1-11.712-7.872,36.3,36.3,0,0,1-7.872-11.712A36,36,0,0,1-36.736-64a36,36,0,0,1,2.88-14.272,36.3,36.3,0,0,1,7.872-11.712,36.3,36.3,0,0,1,11.712-7.872A36,36,0,0,1,0-100.736a36,36,0,0,1,14.272,2.88,36.3,36.3,0,0,1,11.712,7.872,36.3,36.3,0,0,1,7.872,11.712A36,36,0,0,1,36.736-64,36,36,0,0,1,33.856-49.728ZM0-75.136A8.113,8.113,0,0,0,8.064-83.2,8.113,8.113,0,0,0,0-91.264,8.113,8.113,0,0,0-8.064-83.2,8.113,8.113,0,0,0,0-75.136Zm0-12.8A4.725,4.725,0,0,1,4.736-83.2,4.725,4.725,0,0,1,0-78.464,4.725,4.725,0,0,1-4.736-83.2,4.725,4.725,0,0,1,0-87.936Zm14.72,14.08L0-67.456l-14.72-6.4a1.617,1.617,0,0,0-2.176.9,1.617,1.617,0,0,0,.9,2.176l14.336,6.208v7.168L-12.288-39.232a1.55,1.55,0,0,0,.576,2.24,1.55,1.55,0,0,0,2.24-.576L0-53.7,9.472-37.568a1.59,1.59,0,0,0,1.408.832,1.408,1.408,0,0,0,.832-.256,1.55,1.55,0,0,0,.576-2.24L1.664-57.408v-7.168L16-70.784a1.617,1.617,0,0,0,.9-2.176A1.617,1.617,0,0,0,14.72-73.856Z" transform="translate(40.064 104.064)" fill="#1e3657"/>
</svg>
