<svg xmlns="http://www.w3.org/2000/svg" width="66.944" height="88.064" viewBox="0 0 66.944 88.064">
  <path id="award001_-_E0FB" data-name="award001 - E0FB" d="M28.992-67.648c3.328-3.648,4.48-4.416,4.48-6.912,0-1.984.064-1.92-4.48-6.976a1.542,1.542,0,0,1-.448-1.152c0-.384,1.152-5.376,1.152-6.08a5.071,5.071,0,0,0-3.52-4.8L21.7-95.04a1.536,1.536,0,0,1-1.152-1.088v-.064l-1.472-4.544a5.151,5.151,0,0,0-4.864-3.52c-.832,0-5.632,1.216-6.08,1.216-1.984,0-3.776-4.992-8.128-4.992-4.224,0-6.08,4.992-8.128,4.992,0,0-5.568-1.216-6.08-1.216a5.071,5.071,0,0,0-4.8,3.52l-1.472,4.544v-.064A1.579,1.579,0,0,1-21.7-95.04h.064l-4.544,1.472a5.071,5.071,0,0,0-3.52,4.8c0,.768,1.216,5.824,1.216,6.08a1.542,1.542,0,0,1-.448,1.152c-3.136,3.584-4.544,4.288-4.544,6.976,0,2.624,1.216,3.328,4.544,6.912a1.689,1.689,0,0,1,.448,1.216l-.064.32-1.152,5.44v.32a5.237,5.237,0,0,0,3.52,4.864l3.392,1.088-9.792,26.816L-20.1-29.44l8.256,9.472,8.192-22.4A5.967,5.967,0,0,0,0-41.088a5.772,5.772,0,0,0,3.648-1.344L11.84-19.968l8.32-9.472,12.416,1.856L22.784-54.4l3.392-1.088a5.237,5.237,0,0,0,3.52-4.864c0-.7-.128-.768,0-.64l-1.152-5.12v-.32A1.689,1.689,0,0,1,28.992-67.648Zm-2.432-2.24a5.441,5.441,0,0,0-1.344,3.456,2.665,2.665,0,0,0,.128,1.088v-.064l.96,4.544a1.771,1.771,0,0,0,.064.512,1.729,1.729,0,0,1-1.216,1.664l-4.544,1.472a5.175,5.175,0,0,0-3.264,3.264l-1.472,4.544a1.729,1.729,0,0,1-1.664,1.216,1.771,1.771,0,0,0-.512-.064c-4.224-.9-4.8-1.088-5.568-1.088-4.48,0-6.016,4.928-8.128,4.928-2.176,0-3.584-4.928-8.128-4.928-1.152,0-5.376,1.152-6.08,1.152a1.582,1.582,0,0,1-1.6-1.216l-1.472-4.608a5.27,5.27,0,0,0-3.392-3.2h.064l-4.544-1.472a1.729,1.729,0,0,1-1.216-1.664l.064-.32,1.152-5.44v-.32A5.441,5.441,0,0,0-26.5-69.888c-3.712-4.1-3.648-3.9-3.648-4.672s-.384-.128,3.712-4.736a5.425,5.425,0,0,0,1.28-3.392c0-.768-1.216-5.824-1.216-6.08a1.582,1.582,0,0,1,1.216-1.6l4.544-1.472.064-.064a5.551,5.551,0,0,0,3.264-3.2v-.064l1.472-4.544a1.582,1.582,0,0,1,1.6-1.216c.128,0,5.7,1.216,6.08,1.216,4.224,0,6.08-4.992,8.128-4.992,2.112,0,3.84,4.992,8.128,4.992.96,0,5.76-1.216,6.08-1.216a1.655,1.655,0,0,1,1.664,1.216l1.472,4.544v-.064a5.173,5.173,0,0,0,3.2,3.328l4.608,1.536a1.582,1.582,0,0,1,1.216,1.6c0,.192-1.152,5.184-1.152,6.08A5.145,5.145,0,0,0,26.56-79.3c3.584,3.968,3.584,3.9,3.584,4.736C30.144-73.792,30.208-73.92,26.56-69.888ZM0-89.856a15.337,15.337,0,0,0-15.3,15.3A15.3,15.3,0,0,0,0-59.264a15.3,15.3,0,0,0,15.3-15.3A15.3,15.3,0,0,0,0-89.856ZM0-62.592A11.991,11.991,0,0,1-11.968-74.56,11.991,11.991,0,0,1,0-86.528,11.991,11.991,0,0,1,11.968-74.56,11.95,11.95,0,0,1,0-62.592ZM-12.992-26.368l-5.824-6.656-8.768,1.344,7.36-20.288,1.216,3.584a5.071,5.071,0,0,0,4.8,3.52c1.216,0,5.44-1.152,6.08-1.152a2.85,2.85,0,0,1,1.92,1.088ZM18.88-33.024l-5.888,6.656L6.208-44.928a2.989,2.989,0,0,1,1.92-1.088c.256,0,.576.064,5.376,1.088-.064-.064.064.064.7.064a5.237,5.237,0,0,0,4.864-3.52l1.152-3.52,7.36,20.224Z" transform="translate(33.472 108.032)" fill="#1e3657"/>
</svg>
