<svg xmlns="http://www.w3.org/2000/svg" width="75.136" height="87.296" viewBox="0 0 75.136 87.296">
  <path id="stack021_-_E112" data-name="stack021 - E112" d="M25.216-72.64l12.352-8.7L0-107.648l-37.568,26.3,12.352,8.7L-37.568-64l12.352,8.64-12.352,8.7L0-20.352l37.568-26.3-12.352-8.7L37.568-64Zm-56.96-8.7L0-103.552,31.744-81.344,0-59.072ZM31.744-64,0-41.792-31.744-64l9.472-6.656L0-55.04,22.272-70.656Zm0,17.344L0-24.448-31.744-46.656l9.472-6.656L0-37.7,22.272-53.312Z" transform="translate(37.568 107.648)" fill="#1e3657"/>
</svg>
