<svg xmlns="http://www.w3.org/2000/svg" width="34.496" height="34.496" viewBox="0 0 34.496 34.496">
  <path id="check004_-_E105" data-name="check004 - E105" d="M10.88-14.784H-10.88a6.364,6.364,0,0,1-6.368-6.368v-21.76A6.364,6.364,0,0,1-10.88-49.28H10.88a6.364,6.364,0,0,1,6.368,6.368v21.76A6.364,6.364,0,0,1,10.88-14.784Zm-21.76-32a3.865,3.865,0,0,0-3.872,3.872v21.76A3.865,3.865,0,0,0-10.88-17.28H10.88a3.865,3.865,0,0,0,3.872-3.872v-21.76a3.865,3.865,0,0,0-3.872-3.872Zm9.312,23.552L-9.152-31.9-7.3-33.568l5.408,6.176L7.136-41.984,9.248-40.64Z" transform="translate(17.248 49.28)" fill="#fff"/>
</svg>
