<svg xmlns="http://www.w3.org/2000/svg" width="41.6" height="41.6" viewBox="0 0 41.6 41.6">
  <path id="clock001_-_E008" data-name="clock001 - E008" d="M0-11.2a20.521,20.521,0,0,1-8.064-1.632,20.631,20.631,0,0,1-6.624-4.448,20.723,20.723,0,0,1-4.48-6.624A20.562,20.562,0,0,1-20.8-32,20.84,20.84,0,0,1,0-52.8a20.562,20.562,0,0,1,8.1,1.632,20.587,20.587,0,0,1,6.592,4.48,20.587,20.587,0,0,1,4.48,6.592A20.562,20.562,0,0,1,20.8-32a20.562,20.562,0,0,1-1.632,8.1,20.723,20.723,0,0,1-4.48,6.624A21.022,21.022,0,0,1,8.1-12.832,20.562,20.562,0,0,1,0-11.2ZM0-49.6A17.631,17.631,0,0,0-17.6-32a17.921,17.921,0,0,0,1.376,6.848,17.22,17.22,0,0,0,3.808,5.6,17.13,17.13,0,0,0,5.6,3.776A17.642,17.642,0,0,0,0-14.4,17.631,17.631,0,0,0,17.6-32a17.921,17.921,0,0,0-1.376-6.848,18.385,18.385,0,0,0-3.776-5.6,18.385,18.385,0,0,0-5.6-3.776A17.921,17.921,0,0,0,0-49.6ZM2.24-27.84H-9.728v-3.2H-.96V-45.7h3.2Z" transform="translate(20.8 52.8)" fill="#fff"/>
</svg>
