<svg xmlns="http://www.w3.org/2000/svg" width="36.864" height="40.896" viewBox="0 0 36.864 40.896">
  <path id="contacts001_-_E45B" data-name="contacts001 - E45B" d="M11.424-52.448H-16.064v8.832h-2.368v2.5h2.368V-36.7h-2.368v2.5h2.368v4.416h-2.368v2.5h2.368v4.416h-2.368v2.5h2.368v8.832H11.424A6.95,6.95,0,0,0,16.352-13.6a6.978,6.978,0,0,0,2.08-4.96V-45.44a6.978,6.978,0,0,0-2.08-4.96A6.95,6.95,0,0,0,11.424-52.448ZM15.936-18.56a4.527,4.527,0,0,1-4.512,4.512H-13.568v-6.336h2.336v-2.5h-2.336V-27.3h2.336v-2.5h-2.336v-4.416h2.336v-2.5h-2.336V-41.12h2.336v-2.5h-2.336v-6.336H11.424a4.527,4.527,0,0,1,4.512,4.512ZM5.28-32.16a6.054,6.054,0,0,0,2.08-4.576,6.18,6.18,0,0,0-6.176-6.176,6.159,6.159,0,0,0-6.176,6.176A6.026,6.026,0,0,0-2.944-32.16,9.977,9.977,0,0,0-6.08-29.888a10.865,10.865,0,0,0-2.944,7.552h2.5A7.981,7.981,0,0,1,1.184-30.56,8,8,0,0,1,8.9-22.336h2.5a10.894,10.894,0,0,0-2.976-7.552A9.977,9.977,0,0,0,5.28-32.16Zm-4.1-8.256a3.68,3.68,0,0,1,3.68,3.68,3.7,3.7,0,0,1-3.68,3.68,3.681,3.681,0,0,1-3.68-3.68A3.66,3.66,0,0,1,1.184-40.416Z" transform="translate(18.432 52.448)" fill="#fff"/>
</svg>
