<svg xmlns="http://www.w3.org/2000/svg" width="263.052" height="92" viewBox="0 0 263.052 92">
  <g id="logo" transform="translate(-0.002 0.011)">
    <g id="Camada_1" data-name="Camada 1" transform="translate(0.002 -0.011)">
      <path id="Caminho_1" data-name="Caminho 1" d="M443.891,165.42v13.231h-6.7v-11.8a3.589,3.589,0,0,0-3.54-3.92c-2.484,0-4.129,1.813-4.129,5.349v10.366h-6.741v-11.8a3.6,3.6,0,0,0-3.581-3.92c-2.443,0-4.044,1.813-4.044,5.349v10.366H408.42V157.5h6.741v1.94a8,8,0,0,1,6.233-2.57,7.844,7.844,0,0,1,6.912,3.581,9.113,9.113,0,0,1,7.5-3.581C440.31,156.87,443.891,160.276,443.891,165.42Z" transform="translate(-256.07 -98.35)" fill="#fff"/>
      <path id="Caminho_2" data-name="Caminho 2" d="M530.085,178.7h-6.741v-1.686a9.534,9.534,0,0,1-6.573,2.316c-5.6,0-10.322-4.506-10.322-11.191s4.719-11.191,10.322-11.191a9.534,9.534,0,0,1,6.573,2.316V157.58h6.741Zm-6.741-10.575a5.274,5.274,0,0,0-5.181-5.476c-2.951,0-5.1,2.238-5.1,5.476s2.149,5.476,5.1,5.476A5.249,5.249,0,0,0,523.344,168.126Z" transform="translate(-317.533 -98.4)" fill="#fff"/>
      <path id="Caminho_3" data-name="Caminho 3" d="M596.79,179.642h-7.751l-4.044-6.11-4.1,6.11H573.2l6.949-10.24L573.2,158.45h7.71l4.1,6.573,4.044-6.573h7.751L589.8,169.4Z" transform="translate(-359.383 -99.34)" fill="#fff"/>
      <path id="Caminho_4" data-name="Caminho 4" d="M436.239,85.357a20.463,20.463,0,0,1,.168,2.57c0,8.55-6.11,14.7-14.619,14.7S406.58,96.182,406.58,87.882A14.728,14.728,0,0,1,421.658,73.14c6.278,0,11.8,2.947,13.776,8.468l-6.688,1.925c-1.641-3.2-4.338-4.044-7.087-4.044a8.08,8.08,0,0,0-8.087,8.382,8.214,8.214,0,0,0,8.3,8.427,7.415,7.415,0,0,0,7.46-5.054H420.7V85.357Z" transform="translate(-254.917 -45.853)" fill="#fff"/>
      <path id="Caminho_5" data-name="Caminho 5" d="M491.4,99.514V69.18h6.741V99.514Z" transform="translate(-308.097 -43.37)" fill="#fff"/>
      <path id="Caminho_6" data-name="Caminho 6" d="M536.5,103.46c0,6.714-5.308,11.165-11.586,11.165-6.4,0-11.709-4.476-11.709-11.165s5.308-11.12,11.709-11.12C531.187,92.34,536.5,96.805,536.5,103.46Zm-6.487,0a5.17,5.17,0,1,0-5.1,5.476A5.262,5.262,0,0,0,530.008,103.46Z" transform="translate(-321.765 -57.891)" fill="#fff"/>
      <path id="Caminho_7" data-name="Caminho 7" d="M603.011,88.939c0,6.714-4.715,11.191-10.318,11.191a9.528,9.528,0,0,1-6.573-2.316V99.5H579.38V69.18h6.741V80.05a9.528,9.528,0,0,1,6.573-2.316C598.3,77.733,603.011,82.284,603.011,88.939Zm-6.614,0c0-3.245-2.149-5.476-5.1-5.476a5.484,5.484,0,0,0,0,10.952C594.249,94.415,596.4,92.24,596.4,88.939Z" transform="translate(-363.258 -43.37)" fill="#fff"/>
      <path id="Caminho_8" data-name="Caminho 8" d="M666.035,103.46c0,6.714-5.308,11.165-11.582,11.165-6.4,0-11.713-4.476-11.713-11.165s5.319-11.12,11.713-11.12C660.742,92.34,666.035,96.805,666.035,103.46Zm-6.487,0a5.168,5.168,0,1,0-5.1,5.476A5.259,5.259,0,0,0,659.548,103.46Z" transform="translate(-402.983 -57.891)" fill="#fff"/>
      <path id="Caminho_9" data-name="Caminho 9" d="M420.546,38.882a4.529,4.529,0,0,1-.746.463,3.787,3.787,0,0,1-.884.295,5.174,5.174,0,0,1-1.063.1,4.167,4.167,0,0,1-1.682-.332,4.07,4.07,0,0,1-1.335-.906,4.152,4.152,0,0,1-.884-1.358,4.364,4.364,0,0,1-.321-1.686,4.476,4.476,0,0,1,.313-1.675,4.156,4.156,0,0,1,2.238-2.3,4.353,4.353,0,0,1,1.731-.336,5.267,5.267,0,0,1,1.041.093,4.162,4.162,0,0,1,.862.269,4.26,4.26,0,0,1,.724.407,6.458,6.458,0,0,1,.627.522l-.936,1.082a4.584,4.584,0,0,0-1.056-.746,2.764,2.764,0,0,0-1.272-.287,2.611,2.611,0,0,0-1.1.231,2.757,2.757,0,0,0-1.444,1.563,3.22,3.22,0,0,0-.2,1.149,3.3,3.3,0,0,0,.2,1.16,2.921,2.921,0,0,0,.571.944,2.738,2.738,0,0,0,.873.634,2.611,2.611,0,0,0,1.1.231,2.73,2.73,0,0,0,1.306-.291,5.181,5.181,0,0,0,1.082-.791l.94.951A5.41,5.41,0,0,1,420.546,38.882Z" transform="translate(-259.336 -19.526)" fill="#fff"/>
      <path id="Caminho_10" data-name="Caminho 10" d="M446,41.172a3.264,3.264,0,0,1-1.761,1.742,3.585,3.585,0,0,1-2.667,0,3.215,3.215,0,0,1-1.749-1.735,3.171,3.171,0,0,1-.25-1.261,3.226,3.226,0,0,1,.257-1.279,3.286,3.286,0,0,1,.7-1.044,3.491,3.491,0,0,1,3.73-.709,3.2,3.2,0,0,1,2.011,3.014A3.164,3.164,0,0,1,446,41.172Zm-1.335-2.029a1.985,1.985,0,0,0-.4-.649,1.865,1.865,0,0,0-3.118.63,2.306,2.306,0,0,0-.131.776,2.237,2.237,0,0,0,.142.791,1.951,1.951,0,0,0,.4.645,1.835,1.835,0,0,0,.6.433,1.8,1.8,0,0,0,.746.16,1.865,1.865,0,0,0,.787-.16,1.764,1.764,0,0,0,.593-.433,1.813,1.813,0,0,0,.373-.634,2.216,2.216,0,0,0,.131-.776A2.089,2.089,0,0,0,444.662,39.142Z" transform="translate(-275.6 -22.96)" fill="#fff"/>
      <path id="Caminho_11" data-name="Caminho 11" d="M464.8,39.235V30.57h1.451v8.665Z" transform="translate(-291.419 -19.163)" fill="#fff"/>
      <path id="Caminho_12" data-name="Caminho 12" d="M477.991,37.219a1.787,1.787,0,0,0,1.19.4,2.1,2.1,0,0,0,.925-.19,2.984,2.984,0,0,0,.772-.556l.843.746a3.458,3.458,0,0,1-1.074.854,3.2,3.2,0,0,1-1.492.321,3.357,3.357,0,0,1-1.265-.235,3.055,3.055,0,0,1-1.018-.668,3.014,3.014,0,0,1-.683-1.018,3.409,3.409,0,0,1-.25-1.335,3.559,3.559,0,0,1,.224-1.268,3.219,3.219,0,0,1,.638-1.041,3.088,3.088,0,0,1,.966-.705A2.917,2.917,0,0,1,479,32.257a2.984,2.984,0,0,1,1.313.272,2.73,2.73,0,0,1,.936.746,3.161,3.161,0,0,1,.563,1.078,4.366,4.366,0,0,1,.19,1.294q0,.1,0,.19v.2h-4.629A1.914,1.914,0,0,0,477.991,37.219Zm2.589-2.134a2.436,2.436,0,0,0-.153-.645,1.642,1.642,0,0,0-.321-.522,1.57,1.57,0,0,0-.481-.351,1.492,1.492,0,0,0-.634-.131,1.451,1.451,0,0,0-1.1.448,2.063,2.063,0,0,0-.526,1.19ZM478.342,31.6,479.6,29.65l1.306.582L479.457,31.6Z" transform="translate(-298.403 -18.586)" fill="#fff"/>
      <path id="Caminho_13" data-name="Caminho 13" d="M504.034,44.2a3.656,3.656,0,0,1-2.492.787,5.293,5.293,0,0,1-2.8-.746l.533-1.078a4.908,4.908,0,0,0,1.044.485,3.8,3.8,0,0,0,1.186.179,2.052,2.052,0,0,0,1.473-.489,1.917,1.917,0,0,0,.526-1.462v-.489a3.416,3.416,0,0,1-.914.839,2.413,2.413,0,0,1-1.294.321,2.939,2.939,0,0,1-1.067-.194,2.674,2.674,0,0,1-.91-.574,2.817,2.817,0,0,1-.634-.925,3.432,3.432,0,0,1,0-2.5,2.816,2.816,0,0,1,.634-.925,2.767,2.767,0,0,1,.914-.582,2.906,2.906,0,0,1,1.063-.2,2.507,2.507,0,0,1,1.313.317,3.637,3.637,0,0,1,.884.746v-.933h1.436v4.987A3.125,3.125,0,0,1,504.034,44.2Zm-.683-5.308a1.642,1.642,0,0,0-.4-.548,1.783,1.783,0,0,0-.589-.347,2.033,2.033,0,0,0-.705-.123,1.936,1.936,0,0,0-.7.123,1.783,1.783,0,0,0-.563.347,1.626,1.626,0,0,0-.373.545,1.786,1.786,0,0,0-.134.705,1.712,1.712,0,0,0,.522,1.257,1.593,1.593,0,0,0,.563.373,1.939,1.939,0,0,0,.694.123,2.033,2.033,0,0,0,.705-.123,1.7,1.7,0,0,0,.985-.9,1.574,1.574,0,0,0,.149-.7,1.671,1.671,0,0,0-.157-.731Z" transform="translate(-312.517 -22.972)" fill="#fff"/>
      <path id="Caminho_14" data-name="Caminho 14" d="M523.83,32.125V30.76h1.555v1.365Zm.063,7.229V33.088h1.447v6.267Z" transform="translate(-328.43 -19.282)" fill="#fff"/>
      <path id="Caminho_15" data-name="Caminho 15" d="M541.547,41.192a3.2,3.2,0,0,1-.7,1.037,3.272,3.272,0,0,1-1.059.705,3.585,3.585,0,0,1-2.667,0,3.246,3.246,0,0,1-1.742-4.264,3.287,3.287,0,0,1,.7-1.044,3.357,3.357,0,0,1,2.395-.966,3.421,3.421,0,0,1,1.335.257,3.169,3.169,0,0,1,1.984,3,3.162,3.162,0,0,1-.242,1.272Zm-1.332-2.029a2.119,2.119,0,0,0-.4-.649,1.865,1.865,0,0,0-2.745,0,1.836,1.836,0,0,0-.373.634,2.3,2.3,0,0,0-.134.772,2.236,2.236,0,0,0,.138.791,2.014,2.014,0,0,0,.4.645,1.887,1.887,0,0,0,.6.433,1.772,1.772,0,0,0,.746.16,1.82,1.82,0,0,0,1.38-.593,1.866,1.866,0,0,0,.373-.634,2.305,2.305,0,0,0,.131-.776,2.164,2.164,0,0,0-.119-.783Z" transform="translate(-335.508 -22.981)" fill="#fff"/>
      <path id="Caminho_16" data-name="Caminho 16" d="M141.806,36.035c-1.6-11.967-23.788-19.256-52.761-18.42a35.314,35.314,0,0,1,9.848,11.191c15.951.179,27.913,2.846,31.793,7.177,2.645,2.954-4,8.8-16.741,14.294.026-.276.048-.552.071-.828h-.1a45.849,45.849,0,0,0-.235-9.945,5.3,5.3,0,0,0-4.271-4.521,74.106,74.106,0,0,0-13.533-1.119v.075c-1.988,0-4.1.048-6.442.183a5.312,5.312,0,0,0,.31,10.613h.306c2.014-.116,3.98-.22,5.823-.261V44.5a74.586,74.586,0,0,1,7.6.373,35.017,35.017,0,0,1-1.089,9.717l-.1.03A170.755,170.755,0,0,1,80.948,59.9a218.567,218.567,0,0,1-43.566,3.436,35.21,35.21,0,0,1-3.544-25.739l.034-.123c.09-.373.19-.724.291-1.086.06-.209.119-.418.183-.627s.131-.425.2-.638a35.508,35.508,0,0,1,3.917-8.248c.321-.41,1.082-1.384,1.492-1.936a35.067,35.067,0,0,1,41.26-11.743l.164.071c.131.056.261.108.373.145a5.311,5.311,0,1,0,3.9-9.881c-1.958-.795-5.927-2.044-5.927-2.044-.19-.052-.373-.108-.571-.157A45.983,45.983,0,0,0,24.431,31.794C8.581,38.959-1.054,47.852.095,56.428c1.19,8.878,13.668,15.4,31.849,17.905A45.99,45.99,0,0,0,110.506,63.96C130.425,56.2,143.116,45.79,141.806,36.035ZM10.759,56.372c-.4-3.271,3.98-7.557,11.437-11.687a45.707,45.707,0,0,0,3.029,17.748C16.672,61.319,11.114,59.256,10.759,56.372ZM59.726,80.3A35.385,35.385,0,0,1,48.6,75.419h.045A163.9,163.9,0,0,0,74.492,73.37a193.791,193.791,0,0,0,20.257-4.3l.209-.06A35.322,35.322,0,0,1,59.726,80.3Z" transform="translate(-0.002 0.011)" fill="#fff"/>
      <path id="Caminho_17" data-name="Caminho 17" d="M152.89,59.569c1.958-.112,3.79-.172,5.569-.183V59.3h.485A30.3,30.3,0,1,0,105.93,88.441c2.029,0,4.1-.037,6.177-.1L118.695,63.6a3.909,3.909,0,0,1,7.229-.836l4.849,9.106,7.4-16.85a3.909,3.909,0,0,1,7.46,1.212l2.193,23.732a3.911,3.911,0,0,1-7.789.72l-.795-8.658-4.551,10.37a3.913,3.913,0,0,1-7.032.269l-3.973-7.46L120.31,87.918a219.275,219.275,0,0,0,23.922-2.966c5.636-1.03,11.12-2.305,16.372-3.8a30.189,30.189,0,0,0,1.3-9.326c-.828-.026-1.671-.041-2.518-.041h-.746c-1.638.052-3.357.145-5.006.239h-.373a6.248,6.248,0,0,1-.373-12.485Z" transform="translate(-63.518 -26.365)" fill="#fff"/>
      <path id="Caminho_18" data-name="Caminho 18" d="M171.94,199.974a30.01,30.01,0,0,0,13.824-1.4c.787-.269,1.556-.571,2.305-.9q-2.768.515-5.573.959Q177.192,199.478,171.94,199.974Z" transform="translate(-107.803 -123.937)" fill="#fff"/>
    </g>
  </g>
</svg>
