<svg xmlns="http://www.w3.org/2000/svg" width="55.135" height="51.596" viewBox="0 0 55.135 51.596">
  <path id="Caminho_369" data-name="Caminho 369" d="M27.346-135.582A40.153,40.153,0,0,1,31.9-125.67a34.919,34.919,0,0,1,1.46,9.912,34.346,34.346,0,0,1-4.469,16.9A51.45,51.45,0,0,1,16.018-83.987L9.2-88.146a3.027,3.027,0,0,1-1.239-1.283,3.42,3.42,0,0,1-.354-1.46,3.849,3.849,0,0,1,1.151-2.832q1.151-1.328,2.434-3.009a23.791,23.791,0,0,0,2.345-3.805,24.346,24.346,0,0,0,1.726-4.6,20.456,20.456,0,0,0,.664-5.31,23.4,23.4,0,0,0-.974-6.416,30.079,30.079,0,0,0-3.274-7.213,4.142,4.142,0,0,1-.8-2.39q0-2.832,3.274-3.983Zm29.382,0a40.153,40.153,0,0,1,4.558,9.912,34.919,34.919,0,0,1,1.46,9.912,34.346,34.346,0,0,1-4.469,16.9A51.45,51.45,0,0,1,45.4-83.987l-6.815-4.159a3.027,3.027,0,0,1-1.239-1.283,3.42,3.42,0,0,1-.354-1.46,3.849,3.849,0,0,1,1.151-2.832q1.15-1.328,2.434-3.009a23.791,23.791,0,0,0,2.345-3.805,24.346,24.346,0,0,0,1.726-4.6,20.456,20.456,0,0,0,.664-5.31,23.4,23.4,0,0,0-.974-6.416,30.079,30.079,0,0,0-3.274-7.213,4.142,4.142,0,0,1-.8-2.39q0-2.832,3.274-3.983Z" transform="translate(-7.611 135.582)" fill="#ddd"/>
</svg>
